<svg width="1276" height="810" viewBox="0 0 1276 810" fill="none" xmlns="http://www.w3.org/2000/svg">
<path opacity="0.16" fill-rule="evenodd" clip-rule="evenodd" d="M1238.66 584.754C1212.09 665.674 1153.95 735.18 1079.05 792.543C1014.96 841.631 858.849 697.781 789.376 741.736C624.411 846.107 473.344 831.854 355.089 679.72C274.787 556.189 63.415 681.455 19.6777 573.493C-27.5863 456.825 13.1571 309.43 115.129 218.949C215.662 129.745 384.235 144.937 525.19 106.578C667.954 67.7273 812.669 -22.8895 959.109 5.44745C1105.7 33.8129 1193.34 162.336 1248.49 276.621C1295.79 374.634 1272.08 483.013 1238.66 584.754Z" fill="url(#paint0_linear_2_2795)"/>
<defs>
<linearGradient id="paint0_linear_2_2795" x1="488.379" y1="-7.95078" x2="488.38" y2="827.257" gradientUnits="userSpaceOnUse">
<stop offset="0.53125" stop-color="#F7F5FF"/>
<stop offset="1" stop-color="white" stop-opacity="0"/>
</linearGradient>
</defs>
</svg>
